<svg width="40" height="40" xmlns="http://www.w3.org/2000/svg">
 <!-- Created with Method Draw - http://github.com/duopixel/Method-Draw/ -->
 <defs>
  <linearGradient y2="0" x2="1" y1="0" x1="0" id="svg_1">
   <stop offset="0" stop-opacity="0.99609" stop-color="#007fff"/>
   <stop offset="0.77344" stop-opacity="0.99609" stop-color="#5f00bf"/>
  </linearGradient>
 </defs>
 <g id="Layer_1">
  <title>Layer 1</title>
  <ellipse stroke="#000" ry="18.26241" rx="17.80142" id="svg_2" cy="20.14184" cx="19.75177" opacity="undefined" fill="url(#svg_1)"/>
  <path fill="#000000" stroke-width="null" stroke-dasharray="null" stroke-opacity="null" fill-opacity="null" opacity="undefined" d="m6.23107,28.93024l27.5169,0.01087l-0.89293,1.36505l-25.7205,-0.0326l-0.90347,-1.34332l0,0zm0.1891,-18.15832l27.1492,-0.0326l0.7879,1.40034l-28.73552,0.01087l0.79842,-1.37861zm-2.67929,9.09889l32.48677,-0.0326l-0.04199,1.40034l-32.42377,-0.02173l-0.02101,-1.34601zm32.51366,0.12988c0,9.27057 -7.29255,16.81228 -16.25778,16.81228c-8.96136,0 -16.25255,-7.54307 -16.25255,-16.81228c0,-9.26925 7.29251,-16.81096 16.25255,-16.81096c8.96523,-0.00136 16.25778,7.5417 16.25778,16.81096zm-16.25651,-18.15833c-9.6767,0 -17.55121,8.14506 -17.55121,18.15696c0,10.01326 7.87451,18.15832 17.55121,18.15832c9.68197,0 17.55517,-8.14506 17.55517,-18.15832c0,-10.0119 -7.87319,-18.15696 -17.55517,-18.15696zm4.92536,18.15833c0,9.90638 -2.59477,16.81228 -4.92536,16.81228c-2.32795,0 -4.92268,-6.9059 -4.92268,-16.81228c0,-9.90911 2.59345,-16.81096 4.92268,-16.81096c2.32928,-0.00136 4.92536,6.90185 4.92536,16.81096zm-4.92536,-18.15833c-4.0425,0 -6.22398,9.35578 -6.22398,18.15696c0,8.80386 2.18148,18.15832 6.22398,18.15832c4.04254,0 6.22798,-9.35582 6.22798,-18.15832c-0.00132,-8.80118 -2.18543,-18.15696 -6.22798,-18.15696zm11.53518,18.15833c0,9.27057 -5.17645,16.81228 -11.53518,16.81228c-6.35741,0 -11.53122,-7.54307 -11.53122,-16.81228c0,-9.26925 5.17382,-16.81096 11.53122,-16.81096c6.35873,-0.00136 11.53518,7.5417 11.53518,16.81096zm-11.53518,-18.15833c-7.07411,0 -12.83252,8.14506 -12.83252,18.15696c0,10.01326 5.75841,18.15832 12.83252,18.15832c7.07675,0 12.83388,-8.14506 12.83388,-18.15832c0,-10.0119 -5.75713,-18.15696 -12.83388,-18.15696z" id="svg_4" stroke="#000"/>
 </g>
</svg>