<svg width="81" height="80" xmlns="http://www.w3.org/2000/svg">
 <defs>
  <linearGradient y2="49.963%" y1="49.963%" x2="100.053%" x1="-.031%" id="pluginsdk_80-a">
   <stop stop-color="#F97A12" offset="0.2581"/>
   <stop stop-color="#B07B58" offset="0.4591"/>
   <stop stop-color="#577BAE" offset="0.7241"/>
   <stop stop-color="#1E7CE5" offset="0.9105"/>
   <stop stop-color="#087CFA" offset="1"/>
  </linearGradient>
  <linearGradient y2="77.605%" y1="34.514%" x2="82.223%" x1="27.55%" id="pluginsdk_80-b">
   <stop stop-color="#F97A12" offset="0"/>
   <stop stop-color="#CB7A3E" offset="0.0718"/>
   <stop stop-color="#9E7B6A" offset="0.1541"/>
   <stop stop-color="#757B91" offset="0.242"/>
   <stop stop-color="#537BB1" offset="0.3344"/>
   <stop stop-color="#387CCC" offset="0.4324"/>
   <stop stop-color="#237CE0" offset="0.5381"/>
   <stop stop-color="#147CEF" offset="0.6552"/>
   <stop stop-color="#0B7CF7" offset="0.7925"/>
   <stop stop-color="#087CFA" offset="1"/>
  </linearGradient>
  <linearGradient y2="-6.587%" y1="97.699%" x2="40.793%" x1="63.121%" id="pluginsdk_80-c">
   <stop stop-color="#FE315D" offset="0"/>
   <stop stop-color="#CB417E" offset="0.0784"/>
   <stop stop-color="#9E4E9B" offset="0.1601"/>
   <stop stop-color="#755BB4" offset="0.2474"/>
   <stop stop-color="#5365CA" offset="0.3392"/>
   <stop stop-color="#386DDB" offset="0.4365"/>
   <stop stop-color="#2374E9" offset="0.5414"/>
   <stop stop-color="#1478F3" offset="0.6576"/>
   <stop stop-color="#0B7BF8" offset="0.794"/>
   <stop stop-color="#087CFA" offset="1"/>
  </linearGradient>
  <linearGradient y2="132.621%" y1="24.119%" x2="93.854%" x1="25.331%" id="pluginsdk_80-d">
   <stop stop-color="#FE315D" offset="0"/>
   <stop stop-color="#F63462" offset="0.0402"/>
   <stop stop-color="#DF3A71" offset="0.1037"/>
   <stop stop-color="#C24383" offset="0.1667"/>
   <stop stop-color="#AD4A91" offset="0.2912"/>
   <stop stop-color="#755BB4" offset="0.5498"/>
   <stop stop-color="#1D76ED" offset="0.9175"/>
   <stop stop-color="#087CFA" offset="1"/>
  </linearGradient>
 </defs>
 <g>
  <title>Layer 1</title>
  <g id="svg_1" fill-rule="evenodd" fill="none">
   <g id="svg_2" fill-rule="nonzero">
    <path id="svg_3" d="m14.08755,72l-6.08755,-4.89991l0,-32.30819l30,11.87844l-19.8596,25.32966l-4.05285,0z" fill="url(#pluginsdk_80-a)"/>
    <path id="svg_4" d="m28.95247,72l31.32162,-32.08409l-14.60321,-31.45572l0.38721,-0.46019l25.94191,0l0,64l-43.04753,0z" fill="url(#pluginsdk_80-b)"/>
    <path id="svg_5" d="m42.41238,8l29.58762,0l0,28.03662l-14.99217,15.96338l-15.00783,-43.55304l0.41238,-0.44696z" fill="url(#pluginsdk_80-c)"/>
    <path id="svg_6" d="m38.33588,72l-30.33588,0l0,-14.02905l6.23438,-20.6879l-6.23438,-2.12344l0,-27.15961l39.46972,0l18.53028,21.38448l-27.46187,42.54143l-0.20225,0.07409z" fill="url(#pluginsdk_80-d)"/>
   </g>
   <g id="svg_7" fill-rule="nonzero">
    <rect id="svg_8" x="12" y="12" fill="#000" height="56" width="56"/>
   </g>
  </g>
  <path id="svg_11" d="m106.15945,35.31484l1.16724,0.00045l-0.03788,0.05598l-1.09104,-0.00134l-0.03832,-0.05509l0,0zm0.00802,-0.74467l1.15164,-0.00134l0.03342,0.05743l-1.21893,0.00045l0.03387,-0.05654zm-0.11365,0.37315l1.37806,-0.00134l-0.00178,0.05743l-1.37538,-0.00089l-0.00089,-0.0552zm1.3792,0.00533c0,0.38019 -0.30934,0.68947 -0.68964,0.68947c-0.38013,0 -0.68942,-0.30934 -0.68942,-0.68947c0,-0.38013 0.30934,-0.68942 0.68942,-0.68942c0.3803,-0.00006 0.68964,0.30929 0.68964,0.68942zm-0.68959,-0.74467c-0.41048,0 -0.74451,0.33403 -0.74451,0.74462c0,0.41064 0.33403,0.74467 0.74451,0.74467c0.4107,0 0.74467,-0.33403 0.74467,-0.74467c0,-0.41059 -0.33397,-0.74462 -0.74467,-0.74462zm0.20893,0.74467c0,0.40626 -0.11007,0.68947 -0.20893,0.68947c-0.09875,0 -0.20882,-0.28321 -0.20882,-0.68947c0,-0.40637 0.11001,-0.68942 0.20882,-0.68942c0.09881,-0.00006 0.20893,0.28304 0.20893,0.68942zm-0.20893,-0.74467c-0.17148,0 -0.26402,0.38368 -0.26402,0.74462c0,0.36105 0.09254,0.74467 0.26402,0.74467c0.17148,0 0.26418,-0.38368 0.26418,-0.74467c-0.00006,-0.36094 -0.0927,-0.74462 -0.26418,-0.74462zm0.48931,0.74467c0,0.38019 -0.21958,0.68947 -0.48931,0.68947c-0.26967,0 -0.48914,-0.30934 -0.48914,-0.68947c0,-0.38013 0.21947,-0.68942 0.48914,-0.68942c0.26973,-0.00006 0.48931,0.30929 0.48931,0.68942zm-0.48931,-0.74467c-0.30008,0 -0.54434,0.33403 -0.54434,0.74462c0,0.41064 0.24427,0.74467 0.54434,0.74467c0.30019,0 0.5444,-0.33403 0.5444,-0.74467c0,-0.41059 -0.24421,-0.74462 -0.5444,-0.74462z" opacity="undefined" stroke="#000" fill="#fff"/>
  <path stroke="#ffffff" id="svg_13" d="m20.48421,52.34584l39.34646,0.0151l-1.2768,1.89687l-36.77778,-0.0453l-1.29188,-1.86668l0,0zm0.27039,-25.23274l38.82069,-0.0453l1.12662,1.9459l-41.08897,0.0151l1.14166,-1.9157zm-3.83113,12.64378l46.45289,-0.0453l-0.06005,1.94591l-46.3628,-0.0302l-0.03004,-1.87041zm46.49134,0.18048c0,12.88235 -10.42763,23.36227 -23.24703,23.36227c-12.81386,0 -23.23955,-10.48182 -23.23955,-23.36227c0,-12.88052 10.42757,-23.36044 23.23955,-23.36044c12.8194,-0.00189 23.24703,10.47992 23.24703,23.36044zm-23.24521,-25.23274c-13.83674,0 -25.09651,11.31835 -25.09651,25.23084c0,13.91439 11.25978,25.23273 25.09651,25.23273c13.84427,0 25.10217,-11.31834 25.10217,-25.23273c0,-13.91249 -11.25789,-25.23084 -25.10217,-25.23084zm7.04279,25.23274c0,13.76586 -3.71027,23.36227 -7.04279,23.36227c-3.32875,0 -7.03896,-9.59641 -7.03896,-23.36227c0,-13.76965 3.70838,-23.36044 7.03896,-23.36044c3.33064,-0.00189 7.04279,9.59079 7.04279,23.36044zm-7.04279,-25.23274c-5.78038,0 -8.89968,13.00076 -8.89968,25.23084c0,12.23382 3.1193,25.23273 8.89968,25.23273c5.78044,0 8.9054,-13.00081 8.9054,-25.23273c-0.00188,-12.23008 -3.12496,-25.23084 -8.9054,-25.23084zm16.49417,25.23274c0,12.88235 -7.40181,23.36227 -16.49417,23.36227c-9.09047,0 -16.48851,-10.48182 -16.48851,-23.36227c0,-12.88052 7.39805,-23.36044 16.48851,-23.36044c9.09236,-0.00189 16.49417,10.47992 16.49417,23.36044zm-16.49417,-25.23274c-10.11528,0 -18.34924,11.31835 -18.34924,25.23084c0,13.91439 8.23396,25.23273 18.34924,25.23273c10.11905,0 18.35118,-11.31834 18.35118,-25.23273c0,-13.91249 -8.23213,-25.23084 -18.35118,-25.23084z" opacity="undefined" fill-opacity="null" stroke-dasharray="null" stroke-width="null" fill="#fff"/>
  <path id="svg_14" d="m114.98925,36.76451l1.16724,0.00045l-0.03788,0.05598l-1.09104,-0.00134l-0.03832,-0.05509l0,0zm0.00802,-0.74467l1.15164,-0.00134l0.03342,0.05743l-1.21893,0.00045l0.03387,-0.05654zm-0.11365,0.37315l1.37806,-0.00134l-0.00178,0.05743l-1.37538,-0.00089l-0.00089,-0.0552zm1.3792,0.00533c0,0.38019 -0.30934,0.68947 -0.68964,0.68947c-0.38013,0 -0.68942,-0.30934 -0.68942,-0.68947c0,-0.38013 0.30934,-0.68942 0.68942,-0.68942c0.3803,-0.00006 0.68964,0.30929 0.68964,0.68942zm-0.68959,-0.74467c-0.41048,0 -0.74451,0.33403 -0.74451,0.74462c0,0.41064 0.33403,0.74467 0.74451,0.74467c0.4107,0 0.74467,-0.33403 0.74467,-0.74467c0,-0.41059 -0.33397,-0.74462 -0.74467,-0.74462zm0.20893,0.74467c0,0.40626 -0.11007,0.68947 -0.20893,0.68947c-0.09875,0 -0.20882,-0.28321 -0.20882,-0.68947c0,-0.40637 0.11001,-0.68942 0.20882,-0.68942c0.09881,-0.00006 0.20893,0.28304 0.20893,0.68942zm-0.20893,-0.74467c-0.17148,0 -0.26402,0.38368 -0.26402,0.74462c0,0.36105 0.09254,0.74467 0.26402,0.74467c0.17148,0 0.26418,-0.38368 0.26418,-0.74467c-0.00006,-0.36094 -0.0927,-0.74462 -0.26418,-0.74462zm0.48931,0.74467c0,0.38019 -0.21958,0.68947 -0.48931,0.68947c-0.26967,0 -0.48914,-0.30934 -0.48914,-0.68947c0,-0.38013 0.21947,-0.68942 0.48914,-0.68942c0.26973,-0.00006 0.48931,0.30929 0.48931,0.68942zm-0.48931,-0.74467c-0.30008,0 -0.54434,0.33403 -0.54434,0.74462c0,0.41064 0.24427,0.74467 0.54434,0.74467c0.30019,0 0.5444,-0.33403 0.5444,-0.74467c0,-0.41059 -0.24421,-0.74462 -0.5444,-0.74462z" opacity="undefined" fill-opacity="null" stroke-dasharray="null" stroke-width="null" stroke="#ffffff" fill="#fff"/>
 </g>
</svg>