<svg xmlns="http://www.w3.org/2000/svg" viewBox="0 0 40 40" width="40" height="40">
    <defs>
        <linearGradient id="a" x2="0" y2="1">
            <stop offset="0" stop-color="#a448c9" stop-opacity=".99"/>
            <stop offset="1" stop-color="#88c0e0" stop-opacity=".99"/>
        </linearGradient>
    </defs>
    <g fill="none" fill-opacity="0" stroke="url(#a)" stroke-width="1.5" transform="matrix(1.6723 0 0 1.67197 -.058 -.056)">
        <path stroke-linecap="round" stroke-linejoin="round" d="M2 12c0 1.05.18 2.06.51 3m10.5-6h8.49M11 15H2.51M21.5 9a9 9 0 0 0-8.49-6c1.6 0 2.91 3.76 3 8.5M21.5 9c.28.79.45 1.63.5 2.5M2.51 15A9 9 0 0 0 11 21c-1.54 0-2.82-3.5-2.98-8"/>
        <path d="M2 5.3c0-1.1 0-1.65.19-2.08.2-.45.54-.81.96-1.02.41-.2.93-.2 1.96-.2H6c1.89 0 2.83 0 3.41.62.59.62.59 1.62.59 3.62V8.5c0 .87 0 1.31-.26 1.46s-.61-.1-1.29-.58l-.11-.07c-.5-.36-.75-.53-1.03-.62-.29-.09-.59-.09-1.19-.09H5.11c-1.03 0-1.55 0-1.95-.2a2.06 2.06 0 0 1-.97-1.03C2 6.95 2 6.4 2 5.3zm20 12c0-1.1 0-1.65-.19-2.08a2.06 2.06 0 0 0-.97-1.02c-.4-.2-.91-.2-1.95-.2H18c-1.89 0-2.83 0-3.41.62-.59.62-.59 1.62-.59 3.62v2.26c0 .87 0 1.31.26 1.46s.61-.1 1.29-.58l.11-.07c.5-.36.75-.53 1.03-.62.29-.1.59-.1 1.19-.1h1.01c1.03 0 1.55 0 1.95-.19.43-.21.77-.58.97-1.03.19-.42.19-.97.19-2.07z"/>
    </g>
</svg>
